<svg version="1.1" viewBox="0.0 0.0 960.0 720.0" fill="none" stroke="none" stroke-linecap="square" stroke-miterlimit="10" xmlns:xlink="http://www.w3.org/1999/xlink" xmlns="http://www.w3.org/2000/svg"><clipPath id="p.0"><path d="m0 0l960.0 0l0 720.0l-960.0 0l0 -720.0z" clip-rule="nonzero"/></clipPath><g clip-path="url(#p.0)"><path fill="#000000" fill-opacity="0.0" d="m0 0l960.0 0l0 720.0l-960.0 0z" fill-rule="evenodd"/><path fill="#000000" fill-opacity="0.0" d="m209.47507 178.4462l606.7401 0l0 200.18896l-606.7401 0z" fill-rule="evenodd"/><path fill="#38761d" d="m343.14694 281.77933q1.671875 0 2.625 1.546875q0.953125 1.53125 0.953125 4.21875q0 4.984375 -2.421875 7.9375q-12.671875 15.484375 -27.015625 15.484375q-12.40625 0 -19.84375 -9.59375q-7.421875 -9.609375 -7.421875 -27.53125q0 -4.34375 0.390625 -8.703125q-8.453125 1.546875 -18.4375 2.3125q-6.65625 0.5 -9.078125 0.640625q-2.5625 13.046875 -7.171875 32.0q-2.6875 11.125 -10.234375 11.125q-8.203125 0 -8.203125 -7.421875q0 -1.65625 0.640625 -4.609375q4.359375 -17.53125 6.921875 -29.6875l-6.15625 0.25q-4.21875 0 -6.140625 -1.46875q-1.921875 -1.46875 -1.921875 -4.796875q0 -4.234375 2.4375 -6.21875q2.4375 -1.984375 8.0625 -2.234375l6.78125 -0.25q3.328125 -18.046875 3.328125 -27.53125q0 -6.015625 -1.796875 -8.1875q-1.78125 -2.171875 -4.734375 -2.171875q-8.953125 0 -20.21875 14.96875q-1.65625 2.1875 -3.71875 2.1875q-1.78125 0 -3.0625 -1.65625q-1.28125 -1.671875 -1.28125 -4.234375q0 -3.96875 3.203125 -8.453125q5.625 -7.8125 14.203125 -12.859375q8.578125 -5.0625 17.40625 -5.0625q8.328125 0 12.859375 5.703125q4.546875 5.6875 4.546875 17.71875q0 10.625 -3.0625 28.8125l12.53125 -0.640625q8.078125 -0.390625 13.828125 -1.28125q2.3125 -14.078125 7.046875 -26.359375q4.734375 -12.296875 11.765625 -19.96875q7.046875 -7.6875 15.75 -7.6875q6.40625 0 10.109375 5.0625q3.71875 5.046875 3.71875 13.234375q0 31.75 -32.390625 44.03125q-0.375 5.125 -0.375 10.625q0 13.4375 3.328125 19.078125q3.328125 5.625 9.34375 5.625q5.25 0 9.59375 -2.75q4.359375 -2.75 9.859375 -9.40625q1.53125 -1.796875 3.453125 -1.796875zm-17.28125 -72.578125q-2.8125 0 -5.953125 5.125q-3.140625 5.125 -5.953125 13.953125q-2.8125 8.828125 -4.46875 19.328125q10.234375 -4.21875 15.09375 -12.03125q4.859375 -7.8125 4.859375 -20.09375q0 -2.953125 -1.03125 -4.609375q-1.015625 -1.671875 -2.546875 -1.671875zm90.24213 76.421875q1.65625 0 2.609375 1.546875q0.96875 1.53125 0.96875 4.21875q0 4.59375 -2.171875 7.921875q-3.578125 5.515625 -9.40625 8.59375q-5.828125 3.0625 -13.890625 3.0625q-12.28125 0 -19.078125 -7.359375q-6.78125 -7.359375 -6.78125 -19.90625q0 -8.828125 3.703125 -16.4375q3.71875 -7.625 10.3125 -12.09375q6.59375 -4.484375 14.921875 -4.484375q7.421875 0 11.890625 4.421875q4.484375 4.40625 4.484375 11.953125q0 8.828125 -6.34375 15.171875q-6.328125 6.328125 -21.5625 10.046875q3.078125 5.890625 10.375 5.890625q5.25 0 8.640625 -2.4375q3.390625 -2.4375 7.875 -8.1875q1.53125 -1.921875 3.453125 -1.921875zm-21.0 -22.40625q-4.734375 0 -8.0 5.515625q-3.25 5.5 -3.25 13.3125l0 0.25q7.546875 -1.796875 11.890625 -5.375q4.359375 -3.578125 4.359375 -8.328125q0 -2.421875 -1.34375 -3.890625q-1.34375 -1.484375 -3.65625 -1.484375zm98.69989 29.0625q1.40625 -1.28125 2.8125 -1.28125q1.53125 0 2.484375 1.734375q0.96875 1.71875 0.96875 4.15625q0 5.375 -3.84375 8.578125q-6.65625 5.5 -15.09375 5.5q-12.171875 0 -17.796875 -10.171875q-5.625 -10.1875 -5.625 -26.5625q0 -15.625 4.03125 -35.578125q4.03125 -19.96875 11.890625 -34.296875q7.875 -14.34375 18.765625 -14.34375q6.140625 0 9.65625 5.703125q3.515625 5.6875 3.515625 16.3125q0 15.21875 -8.390625 35.328125q-8.375 20.09375 -22.828125 39.671875q0.890625 5.25 3.1875 7.5625q2.3125 2.296875 6.28125 2.296875q2.171875 0 4.921875 -1.28125q2.75 -1.28125 5.0625 -3.328125zm-4.234375 -89.59375q-2.9375 0 -6.65625 10.625q-3.703125 10.609375 -6.53125 26.359375q-2.8125 15.75 -3.0625 30.203125q9.09375 -14.96875 14.46875 -30.0q5.375 -15.046875 5.375 -27.46875q0 -9.71875 -3.59375 -9.71875zm85.25833 89.59375q1.40625 -1.28125 2.8125 -1.28125q1.53125 0 2.484375 1.734375q0.96875 1.71875 0.96875 4.15625q0 5.375 -3.84375 8.578125q-6.65625 5.5 -15.09375 5.5q-12.171875 0 -17.796875 -10.171875q-5.625 -10.1875 -5.625 -26.5625q0 -15.625 4.03125 -35.578125q4.03125 -19.96875 11.890625 -34.296875q7.875 -14.34375 18.765625 -14.34375q6.140625 0 9.65625 5.703125q3.515625 5.6875 3.515625 16.3125q0 15.21875 -8.390625 35.328125q-8.375 20.09375 -22.828125 39.671875q0.890625 5.25 3.1875 7.5625q2.3125 2.296875 6.28125 2.296875q2.171875 0 4.921875 -1.28125q2.75 -1.28125 5.0625 -3.328125zm-4.234375 -89.59375q-2.9375 0 -6.65625 10.625q-3.703125 10.609375 -6.53125 26.359375q-2.8125 15.75 -3.0625 30.203125q9.09375 -14.96875 14.46875 -30.0q5.375 -15.046875 5.375 -27.46875q0 -9.71875 -3.59375 -9.71875zm69.89899 108.28125q-7.5625 0 -12.875 -3.765625q-5.3125 -3.78125 -8.0 -9.921875q-2.6875 -6.15625 -2.6875 -13.1875q0 -9.734375 3.640625 -17.34375q3.65625 -7.625 9.921875 -11.90625q6.28125 -4.296875 14.09375 -4.296875q7.546875 0 12.921875 3.78125q5.375 3.78125 8.0625 9.921875q2.6875 6.140625 2.6875 13.1875q0 9.71875 -3.71875 17.34375q-3.703125 7.609375 -10.046875 11.90625q-6.328125 4.28125 -14.0 4.28125zm1.40625 -13.828125q4.34375 0 7.34375 -4.734375q3.015625 -4.734375 3.015625 -13.828125q0 -7.03125 -2.5625 -10.609375q-2.546875 -3.59375 -6.140625 -3.59375q-4.609375 0 -7.625 4.671875q-3.0 4.671875 -3.0 13.890625q0 7.296875 2.5625 10.75q2.5625 3.453125 6.40625 3.453125zm83.20087 -16.765625q-2.5625 0 -4.234375 -1.140625q-1.65625 -1.15625 -1.65625 -3.59375l0.125 -1.03125q2.171875 -14.328125 5.875 -32.625q3.71875 -18.3125 6.921875 -31.625q2.046875 -8.1875 11.140625 -8.1875q8.1875 0 8.1875 5.25q0 1.140625 -0.375 2.546875q-3.328125 13.578125 -8.84375 32.84375q-5.5 19.265625 -10.484375 33.46875q-1.40625 4.09375 -6.65625 4.09375zm-4.875 30.59375q-5.625 0 -8.515625 -3.0625q-2.875 -3.078125 -2.875 -8.078125q0 -5.75 3.265625 -9.203125q3.265625 -3.46875 9.15625 -3.46875q5.625 0 8.5 2.765625q2.890625 2.75 2.890625 8.125q0 5.875 -3.328125 9.40625q-3.328125 3.515625 -9.09375 3.515625z" fill-rule="nonzero"/><path fill="#000000" fill-opacity="0.0" d="m139.6588 400.34122l761.8898 0l0 263.7795l-761.8898 0z" fill-rule="evenodd"/><path fill="#a64d79" d="m227.67442 444.28244q0 8.15625 -4.234375 14.984375q-4.21875 6.8125 -12.28125 11.140625q-8.0625 4.3125 -19.203125 5.078125l-4.125 23.140625q-2.40625 13.34375 -13.0625 13.34375q-5.859375 0 -10.796875 -3.46875q-4.9375 -3.453125 -7.921875 -10.546875q-2.96875 -7.109375 -2.96875 -17.484375q0 -19.484375 6.28125 -33.0625q6.28125 -13.59375 16.890625 -20.359375q10.609375 -6.765625 23.375 -6.765625q9.03125 0 15.3125 3.171875q6.296875 3.171875 9.515625 8.59375q3.21875 5.421875 3.21875 12.234375zm-33.984375 21.3125q19.671875 -2.5 19.671875 -20.453125q0 -6.328125 -4.171875 -10.3125q-4.171875 -3.984375 -12.921875 -3.984375q-9.875 0 -17.21875 6.25q-7.34375 6.234375 -11.328125 17.328125q-3.984375 11.078125 -3.984375 25.28125q0 5.953125 1.1875 10.5625q1.203125 4.609375 3.078125 7.15625q1.875 2.546875 3.59375 2.546875q2.40625 0 3.65625 -6.625l3.171875 -18.140625q-3.75 -0.578125 -3.265625 -0.484375q-2.890625 -0.484375 -3.75 -1.78125q-0.859375 -1.296875 -0.859375 -3.3125q0 -2.109375 1.1875 -3.359375q1.203125 -1.25 3.328125 -1.25q0.953125 0 1.4375 0.09375q2.296875 0.390625 3.546875 0.484375q1.25 -7.484375 3.546875 -20.0625q0.578125 -3.265625 2.640625 -4.65625q2.0625 -1.390625 4.859375 -1.390625q3.15625 0 4.546875 1.203125q1.40625 1.203125 1.40625 3.78125q0 1.546875 -0.203125 2.5l-3.15625 18.625zm73.23308 14.5q1.25 0 1.96875 1.15625q0.734375 1.140625 0.734375 3.15625q0 3.84375 -1.828125 5.953125q-4.125 5.09375 -8.984375 8.359375q-4.8437347 3.265625 -10.98436 3.265625q-8.453125 0 -12.53125 -7.671875q-4.078125 -7.6875 -4.078125 -19.890625q0 -11.703125 3.015625 -26.671875q3.03125 -14.984375 8.9375 -25.734375q5.90625 -10.75 14.062485 -10.75q4.609375 0 7.25 4.265625q2.640625 4.265625 2.640625 12.234375q0 11.4375 -6.34375 26.515625q-6.3281097 15.0625 -17.187485 29.84375q0.6875 3.9375 2.21875 5.625q1.53125 1.671875 4.03125 1.671875q3.9375 0 6.9062347 -2.25q2.984375 -2.265625 7.59375 -7.734375q1.140625 -1.34375 2.578125 -1.34375zm-11.79686 -59.328125q-2.21875 0 -5.0 7.96875q-2.78125 7.96875 -4.890625 19.78125q-2.109375 11.796875 -2.3125 22.640625q6.828125 -11.21875 10.859375 -22.5q4.0312347 -11.28125 4.0312347 -20.59375q0 -7.296875 -2.6874847 -7.296875zm49.53035 59.328125q1.25 0 1.96875 1.15625q0.71875 1.140625 0.71875 3.15625q0 3.84375 -1.828125 5.953125q-3.546875 4.328125 -10.03125 7.984375q-6.46875 3.640625 -13.859375 3.640625q-10.09375 0 -15.65625 -5.46875q-5.5625 -5.484375 -5.5625 -14.984375q0 -6.625 2.78125 -12.328125q2.78125 -5.71875 7.71875 -9.078125q4.953125 -3.359375 11.1875 -3.359375q5.578125 0 8.9375 3.3125q3.359375 3.3125 3.359375 8.96875q0 6.625 -4.765625 11.390625q-4.75 4.75 -16.078125 7.53125q2.40625 4.40625 9.125 4.40625q4.328125 0 9.84375 -3.015625q5.515625 -3.03125 9.546875 -7.921875q1.15625 -1.34375 2.59375 -1.34375zm-24.1875 -13.921875q-3.546875 0 -6.0 4.125q-2.453125 4.125 -2.453125 9.984375l0 0.1875q5.671875 -1.34375 8.921875 -4.03125q3.265625 -2.6875 3.265625 -6.234375q0 -1.828125 -1.015625 -2.921875q-1.0 -1.109375 -2.71875 -1.109375zm30.435486 35.8125q-5.953125 0 -9.515625 -4.3125q-3.546875 -4.328125 -3.546875 -11.34375q0 -7.671875 3.546875 -14.53125q3.5625 -6.875 9.453125 -11.046875q5.90625 -4.171875 12.53125 -4.171875q2.125 0 2.84375 0.8125q0.71875 0.8125 1.1875 2.921875q2.015625 -0.375 4.234375 -0.375q4.703125 0 4.703125 3.359375q0 2.015625 -1.4375 9.59375q-2.21875 11.046875 -2.21875 15.359375q0 1.4375 0.71875 2.3125q0.71875 0.859375 1.875 0.859375q1.828125 0 4.421875 -2.34375q2.59375 -2.359375 7.0 -7.640625q1.15625 -1.34375 2.59375 -1.34375q1.25 0 1.96875 1.15625q0.71875 1.140625 0.71875 3.15625q0 3.84375 -1.8125 5.953125q-3.9375 4.90625 -8.359375 8.265625q-4.421875 3.359375 -8.546875 3.359375q-3.171875 0 -5.8125 -2.15625q-2.625 -2.171875 -3.984375 -5.90625q-4.984375 8.0625 -12.5625 8.0625zm3.453125 -9.703125q2.109375 0 4.03125 -2.484375q1.921875 -2.5 2.78125 -6.640625l3.546875 -17.65625q-4.03125 0.09375 -7.4375 3.03125q-3.40625 2.921875 -5.421875 7.71875q-2.015625 4.796875 -2.015625 10.171875q0 2.984375 1.203125 4.421875q1.203125 1.4375 3.3125 1.4375zm47.713745 11.8125q-5.0 0 -7.640625 -2.3125q-2.640625 -2.296875 -2.640625 -5.171875q0 -2.5 1.828125 -4.328125q1.828125 -1.828125 5.375 -1.828125q1.25 0 2.921875 0.25q1.6875 0.234375 2.546875 0.328125q-0.09375 -2.484375 -1.109375 -4.6875q-1.0 -2.21875 -2.53125 -4.28125q-1.53125 -2.0625 -2.875 -3.609375q-2.984375 5.671875 -5.921875 9.421875q-2.921875 3.734375 -6.375 7.09375q-1.734375 1.734375 -3.640625 1.734375q-1.546875 0 -2.5 -1.109375q-0.96875 -1.109375 -0.96875 -2.734375q0 -1.921875 1.34375 -3.546875l1.25 -1.546875q5.28125 -6.515625 7.96875 -10.75q1.640625 -2.78125 3.84375 -7.4375q2.203125 -4.65625 4.3125 -9.640625q1.828125 -4.234375 7.59375 -4.234375q2.6875 0 3.734375 0.484375q1.0625 0.484375 1.0625 1.53125q0 0.578125 -0.390625 1.828125q-0.375 1.25 -1.046875 2.5q-1.734375 3.453125 -1.734375 5.859375q0 1.4375 1.0 3.171875q1.015625 1.71875 3.140625 4.3125q3.0625 4.03125 4.640625 6.859375q1.59375 2.828125 1.59375 6.1875q0 0.96875 -0.1875 2.6875q4.703125 -1.8125 11.03125 -9.6875q1.15625 -1.34375 2.59375 -1.34375q1.25 0 1.96875 1.15625q0.71875 1.140625 0.71875 3.15625q0 3.65625 -1.828125 5.953125q-4.796875 5.953125 -9.171875 8.125q-4.359375 2.15625 -10.796875 2.34375q-3.828125 3.265625 -9.109375 3.265625zm57.491974 -21.125q1.25 0 1.96875 1.15625q0.71875 1.15625 0.71875 3.171875q0 3.453125 -1.625 5.953125q-2.6875 4.125 -7.0625 6.4375q-4.359375 2.296875 -10.40625 2.296875q-9.21875 0 -14.3125 -5.515625q-5.078125 -5.53125 -5.078125 -14.9375q0 -6.625 2.78125 -12.328125q2.78125 -5.71875 7.71875 -9.078125q4.953125 -3.359375 11.1875 -3.359375q5.578125 0 8.9375 3.3125q3.359375 3.3125 3.359375 8.96875q0 6.625 -4.765625 11.390625q-4.75 4.75 -16.171875 7.53125q2.3125 4.40625 7.78125 4.40625q3.9375 0 6.484375 -1.8125q2.546875 -1.828125 5.90625 -6.15625q1.140625 -1.4375 2.578125 -1.4375zm-15.734375 -16.796875q-3.546875 0 -6.0 4.125q-2.453125 4.125 -2.453125 9.984375l0 0.1875q5.671875 -1.34375 8.921875 -4.03125q3.265625 -2.6875 3.265625 -6.234375q0 -1.828125 -1.015625 -2.921875q-1.0 -1.109375 -2.71875 -1.109375zm95.22406 5.859375q1.25 0 1.921875 1.25q0.671875 1.25 0.671875 3.15625q0 4.609375 -2.78125 5.484375q-5.765625 2.015625 -12.671875 2.296875q-1.828125 8.0625 -7.203125 12.921875q-5.375 4.84375 -12.1875 4.84375q-5.765625 0 -9.84375 -2.78125q-4.078125 -2.796875 -6.1875 -7.390625q-2.109375 -4.609375 -2.109375 -10.0q0 -7.28125 2.78125 -13.0q2.78125 -5.71875 7.671875 -8.921875q4.90625 -3.21875 10.859375 -3.21875q7.296875 0 11.75 5.046875q4.46875 5.03125 5.234375 12.421875q4.515625 -0.28125 10.75 -1.921875q0.765625 -0.1875 1.34375 -0.1875zm-31.484375 19.765625q3.078125 0 5.328125 -2.484375q2.25 -2.5 3.03125 -7.203125q-2.984375 -2.015625 -4.578125 -5.28125q-1.578125 -3.265625 -1.578125 -6.90625q0 -1.546875 0.296875 -3.078125l-0.484375 0q-3.84375 0 -6.390625 3.703125q-2.53125 3.6875 -2.53125 10.40625q0 5.28125 2.0625 8.0625q2.0625 2.78125 4.84375 2.78125zm77.092865 -11.703125q1.25 0 1.96875 1.15625q0.71875 1.140625 0.71875 3.15625q0 3.84375 -1.828125 5.953125q-4.125 5.09375 -8.875 8.359375q-4.75 3.265625 -10.796875 3.265625q-5.09375 0 -8.265625 -3.65625q-5.46875 3.5625 -11.4219055 3.65625q-1.25 18.53128 -5.671875 30.953156q-4.40625 12.4375 -12.953125 12.4375q-5.1875 0 -7.671875 -3.75q-2.5 -3.734375 -2.5 -10.359375q0 -9.40625 4.328125 -21.93753q4.3125 -12.53125 13.328125 -27.609375q0 -14.015625 -0.1875 -19.484375q-0.09375 -2.78125 2.203125 -4.40625q2.3125 -1.640625 5.765625 -1.640625q2.015625 0 2.921875 0.8125q0.921875 0.8125 1.015625 3.21875q0 2.40625 0.09375 3.546875q3.078125 -3.828125 6.0469055 -5.5q2.984375 -1.6875 6.34375 -1.6875q5.375 0 8.78125 4.328125q3.40625 4.3125 3.40625 11.3125q0 5.09375 -1.640625 9.890625q-1.625 4.796875 -4.5 8.734375q2.015625 0.578125 3.359375 0.578125q3.171875 0 6.046875 -2.296875q2.875 -2.3125 7.390625 -7.6875q1.15625 -1.34375 2.59375 -1.34375zm-38.015656 12.671875q3.453125 -0.765625 6.3750305 -3.78125q2.9375 -3.03125 4.65625 -7.5q1.734375 -4.46875 1.734375 -9.359375q0 -2.875 -1.15625 -4.359375q-1.15625 -1.5 -3.0625 -1.5q-3.4687805 0 -8.3594055 7.296875q-0.09375 4.21875 -0.09375 12.390625q0 4.40625 -0.09375 6.8125zm-18.34375 43.203156q2.59375 0 4.3125 -11.28125q1.734375 -11.28125 2.21875 -28.078156q-4.125 9.59375 -6.515625 18.328156q-2.40625 8.734375 -2.40625 14.6875q0 3.078125 0.71875 4.703125q0.71875 1.640625 1.671875 1.640625zm94.082245 -55.87503q1.25 0 1.96875 1.15625q0.71875 1.140625 0.71875 3.15625q0 3.84375 -1.828125 5.953125q-3.546875 4.328125 -10.03125 7.984375q-6.46875 3.640625 -13.859375 3.640625q-10.09375 0 -15.65625 -5.46875q-5.5625 -5.484375 -5.5625 -14.984375q0 -6.625 2.78125 -12.328125q2.78125 -5.71875 7.71875 -9.078125q4.953125 -3.359375 11.1875 -3.359375q5.578125 0 8.9375 3.3125q3.359375 3.3125 3.359375 8.96875q0 6.625 -4.765625 11.390625q-4.75 4.75 -16.078125 7.53125q2.40625 4.40625 9.125 4.40625q4.328125 0 9.84375 -3.015625q5.515625 -3.03125 9.546875 -7.921875q1.15625 -1.34375 2.59375 -1.34375zm-24.1875 -13.921875q-3.546875 0 -6.0 4.125q-2.453125 4.125 -2.453125 9.984375l0 0.1875q5.671875 -1.34375 8.921875 -4.03125q3.265625 -2.6875 3.265625 -6.234375q0 -1.828125 -1.015625 -2.921875q-1.0 -1.109375 -2.71875 -1.109375zm25.915466 35.8125q-3.640625 0 -5.140625 -3.84375q-1.484375 -3.84375 -1.484375 -12.28125q0 -12.484375 3.5625 -23.71875q0.859375 -2.78125 2.828125 -4.078125q1.96875 -1.296875 5.515625 -1.296875q1.921875 0 2.6875 0.484375q0.765625 0.46875 0.765625 1.8125q0 1.546875 -1.4375 6.921875q-0.953125 3.828125 -1.53125 6.71875q-0.578125 2.875 -0.96875 7.09375q3.171875 -8.25 7.109375 -13.421875q3.9375 -5.1875 7.71875 -7.390625q3.796875 -2.21875 6.96875 -2.21875q3.078125 0 4.65625 1.59375q1.578125 1.578125 1.578125 4.640625q0 2.5 -1.046875 9.40625q-0.96875 5.859375 -1.546875 11.09375q-0.5625 5.234375 -0.5625 11.65625q0 3.65625 -1.5 5.25q-1.484375 1.578125 -4.84375 1.578125q-3.171875 0 -4.609375 -1.625q-1.4375 -1.640625 -1.4375 -4.90625q0 -3.84375 1.34375 -12.671875q1.15625 -7.6875 1.15625 -9.796875q0 -1.53125 -1.0625 -1.53125q-1.25 0 -3.5 3.21875q-2.25 3.21875 -4.609375 8.5q-2.34375 5.265625 -3.796875 11.125q-1.046875 4.515625 -2.4375 6.109375q-1.390625 1.578125 -4.375 1.578125zm107.90399 -21.890625q1.25 0 1.96875 1.15625q0.71875 1.140625 0.71875 3.15625q0 3.84375 -1.828125 5.953125q-4.125 5.09375 -9.015625 8.359375q-4.890625 3.265625 -11.234375 3.265625q-19.578125 0 -19.578125 -27.5625q0 -4.21875 0.28125 -8.53125l-3.75 0q-2.875 0 -3.890625 -1.0625q-1.0 -1.0625 -1.0 -3.359375q0 -5.375 4.328125 -5.375l5.46875 0q1.625 -10.5625 4.984375 -19.296875q3.359375 -8.734375 8.109375 -13.921875q4.765625 -5.1875 10.234375 -5.1875q4.03125 0 6.328125 3.5625q2.3125 3.546875 2.3125 8.921875q0 14.875 -12.484375 25.921875l10.75 0q1.53125 0 2.203125 0.671875q0.6875 0.671875 0.6875 2.5q0 6.625 -10.859375 6.625l-11.703125 0q-0.203125 4.796875 -0.203125 7.484375q0 9.984375 2.34375 14.015625q2.359375 4.03125 7.453125 4.03125q4.125 0 7.296875 -2.5q3.171875 -2.5 7.484375 -7.484375q1.15625 -1.34375 2.59375 -1.34375zm-16.796875 -53.1875q-1.4375 0 -3.21875 3.609375q-1.78125 3.59375 -3.359375 9.984375q-1.578125 6.375 -2.640625 14.15625q5.671875 -4.90625 8.5 -11.0q2.828125 -6.09375 2.828125 -11.078125q0 -5.671875 -2.109375 -5.671875zm64.99359 53.1875q1.25 0 1.96875 1.15625q0.71875 1.140625 0.71875 3.15625q0 3.84375 -1.828125 5.953125q-4.40625 5.09375 -9.0625 8.359375q-4.65625 3.265625 -10.609375 3.265625q-4.90625 0 -7.40625 -2.828125q-2.484375 -2.84375 -2.484375 -8.21875q0 -2.6875 1.34375 -9.59375q1.25 -6.046875 1.25 -8.359375q0 -1.53125 -1.0625 -1.53125q-1.25 0 -3.5625 3.21875q-2.296875 3.21875 -4.609375 8.5q-2.296875 5.265625 -3.734375 11.125q-1.828125 7.6875 -9.015625 7.6875q-2.890625 0 -3.796875 -2.0625q-0.90625 -2.0625 -0.90625 -7.453125q0 -3.0625 0.09375 -4.890625l0.09375 -7.671875q0 -14.796875 3.015625 -30.828125q3.03125 -16.03125 8.9375 -26.921875q5.90625 -10.890625 14.15625 -10.890625q4.421875 0 7.15625 3.796875q2.734375 3.78125 2.734375 9.828125q0 9.703125 -5.671875 20.125q-5.65625 10.40625 -18.421875 24.328125q-0.296875 4.984375 -0.296875 10.265625q3.171875 -8.15625 7.0625 -13.28125q3.890625 -5.140625 7.671875 -7.34375q3.796875 -2.21875 6.96875 -2.21875q6.234375 0 6.234375 6.234375q0 3.75 -2.109375 13.546875q-1.828125 8.34375 -1.828125 11.03125q0 3.84375 2.796875 3.84375q1.90625 0 4.546875 -2.34375q2.640625 -2.359375 7.0625 -7.640625q1.15625 -1.34375 2.59375 -1.34375zm-28.515625 -59.328125q-1.734375 0 -3.84375 4.953125q-2.109375 4.9375 -4.078125 13.34375q-1.96875 8.390625 -3.21875 18.28125q5.953125 -7.015625 9.84375 -15.265625q3.890625 -8.265625 3.890625 -14.984375q0 -3.0625 -0.671875 -4.6875q-0.671875 -1.640625 -1.921875 -1.640625zm57.785706 62.203125q1.25 0 1.96875 1.15625q0.71875 1.15625 0.71875 3.171875q0 3.453125 -1.625 5.953125q-2.6875 4.125 -7.0625 6.4375q-4.359375 2.296875 -10.40625 2.296875q-9.21875 0 -14.3125 -5.515625q-5.078125 -5.53125 -5.078125 -14.9375q0 -6.625 2.78125 -12.328125q2.78125 -5.71875 7.71875 -9.078125q4.953125 -3.359375 11.1875 -3.359375q5.578125 0 8.9375 3.3125q3.359375 3.3125 3.359375 8.96875q0 6.625 -4.765625 11.390625q-4.75 4.75 -16.171875 7.53125q2.3125 4.40625 7.78125 4.40625q3.9375 0 6.484375 -1.8125q2.546875 -1.828125 5.90625 -6.15625q1.140625 -1.4375 2.578125 -1.4375zm-15.734375 -16.796875q-3.546875 0 -6.0 4.125q-2.453125 4.125 -2.453125 9.984375l0 0.1875q5.671875 -1.34375 8.921875 -4.03125q3.265625 -2.6875 3.265625 -6.234375q0 -1.828125 -1.015625 -2.921875q-1.0 -1.109375 -2.71875 -1.109375z" fill-rule="nonzero"/><path fill="#a64d79" d="m389.04056 616.9856q-3.640625 0 -5.140625 -3.84375q-1.484375 -3.84375 -1.484375 -12.28125q0 -12.484375 3.5625 -23.71875q0.859375 -2.78125 2.828125 -4.078125q1.96875 -1.296875 5.515625 -1.296875q1.921875 0 2.6875 0.484375q0.765625 0.46875 0.765625 1.8125q0 1.546875 -1.4375 6.921875q-0.953125 3.828125 -1.53125 6.671875q-0.578125 2.828125 -0.96875 7.046875q2.59375 -7.484375 6.1875 -12.65625q3.609375 -5.1875 7.390625 -7.734375q3.796875 -2.546875 7.15625 -2.546875q3.359375 0 4.75 1.546875q1.40625 1.53125 1.40625 4.6875q0 3.078125 -1.828125 11.140625q-0.765625 3.453125 -1.0625 5.1875q4.8125 -11.8125 10.65625 -17.1875q5.859375 -5.375 10.953125 -5.375q6.234375 0 6.234375 6.234375q0 3.75 -2.109375 13.546875q-1.828125 8.34375 -1.828125 11.03125q0 3.84375 2.78125 3.84375q1.921875 0 4.5625 -2.34375q2.640625 -2.359375 7.0625 -7.640625q1.15625 -1.34375 2.59375 -1.34375q1.25 0 1.96875 1.15625q0.71875 1.140625 0.71875 3.15625q0 3.84375 -1.828125 5.953125q-4.125 5.09375 -8.875 8.359375q-4.75 3.265625 -10.8125 3.265625q-4.890625 0 -7.390625 -2.828125q-2.484375 -2.84375 -2.484375 -8.21875q0 -2.6875 1.34375 -9.59375q1.25 -6.046875 1.25 -8.359375q0 -1.53125 -1.0625 -1.53125q-1.25 0 -3.5625 3.21875q-2.296875 3.21875 -4.609375 8.5q-2.296875 5.265625 -3.734375 11.125q-1.0625 4.609375 -2.453125 6.15625q-1.390625 1.53125 -4.453125 1.53125q-3.171875 0 -4.765625 -3.015625q-1.578125 -3.03125 -1.578125 -7.359375q0 -3.640625 0.96875 -10.5625q0.765625 -6.140625 0.765625 -8.0625q0 -1.53125 -1.0625 -1.53125q-1.4375 0 -3.65625 3.453125q-2.203125 3.453125 -4.265625 8.828125q-2.0625 5.375 -3.3125 10.5625q-1.046875 4.515625 -2.4375 6.109375q-1.390625 1.578125 -4.375 1.578125zm107.42395 -21.890625q1.25 0 1.96875 1.15625q0.71875 1.140625 0.71875 3.15625q0 3.84375 -1.828125 5.953125q-3.546875 4.328125 -10.03125 7.984375q-6.46875 3.640625 -13.859375 3.640625q-10.09375 0 -15.65625 -5.46875q-5.5625 -5.484375 -5.5625 -14.984375q0 -6.625 2.78125 -12.328125q2.78125 -5.71875 7.71875 -9.078125q4.953125 -3.359375 11.1875 -3.359375q5.578125 0 8.9375 3.3125q3.359375 3.3125 3.359375 8.96875q0 6.625 -4.765625 11.390625q-4.75 4.75 -16.078125 7.53125q2.40625 4.40625 9.125 4.40625q4.328125 0 9.84375 -3.015625q5.515625 -3.03125 9.546875 -7.921875q1.15625 -1.34375 2.59375 -1.34375zm-24.1875 -13.921875q-3.546875 0 -6.0 4.125q-2.453125 4.125 -2.453125 9.984375l0 0.1875q5.671875 -1.34375 8.921875 -4.03125q3.265625 -2.6875 3.265625 -6.234375q0 -1.828125 -1.015625 -2.921875q-1.0 -1.109375 -2.71875 -1.109375zm25.915466 35.8125q-3.640625 0 -5.140625 -3.84375q-1.484375 -3.84375 -1.484375 -12.28125q0 -12.484375 3.5625 -23.71875q0.859375 -2.78125 2.828125 -4.078125q1.96875 -1.296875 5.515625 -1.296875q1.921875 0 2.6875 0.484375q0.765625 0.46875 0.765625 1.8125q0 1.546875 -1.4375 6.921875q-0.953125 3.828125 -1.53125 6.71875q-0.578125 2.875 -0.96875 7.09375q3.171875 -8.25 7.109375 -13.421875q3.9375305 -5.1875 7.7187805 -7.390625q3.796875 -2.21875 6.96875 -2.21875q6.234375 0 6.234375 6.234375q0 3.75 -2.109375 13.546875q-1.828125 8.34375 -1.828125 11.03125q0 3.84375 2.796875 3.84375q1.921875 0 4.546875 -2.34375q2.640625 -2.359375 7.0625 -7.640625q1.15625 -1.34375 2.59375 -1.34375q1.25 0 1.96875 1.15625q0.71875 1.140625 0.71875 3.15625q0 3.84375 -1.828125 5.953125q-4.125 5.09375 -8.875 8.359375q-4.75 3.265625 -10.796875 3.265625q-4.90625 0 -7.40625 -2.828125q-2.484375 -2.84375 -2.484375 -8.21875q0 -2.6875 1.34375 -9.59375q1.25 -6.046875 1.25 -8.359375q0 -1.53125 -1.0625 -1.53125q-1.25 0 -3.5 3.21875q-2.2500305 3.21875 -4.6094055 8.5q-2.34375 5.265625 -3.796875 11.125q-1.046875 4.515625 -2.4375 6.109375q-1.390625 1.578125 -4.375 1.578125zm50.787872 0q-4.515625 0 -7.25 -3.6875q-2.734375 -3.703125 -2.734375 -10.234375q0 -7.203125 0.953125 -13.203125q0.96875 -6.0 3.171875 -12.71875q0.96875 -2.875 2.6875 -4.125q1.734375 -1.25 5.46875 -1.25q2.125 0 2.9375 0.671875q0.8125 0.671875 0.8125 2.015625q0 0.765625 -1.0625 5.1875q-0.953125 3.546875 -1.53125 6.421875q-1.921875 10.078125 -1.921875 13.453125q0 2.015625 0.484375 2.828125q0.484375 0.8125 1.53125 0.8125q1.4375 0 3.640625 -2.921875q2.21875 -2.9375 4.65625 -8.84375q2.453125 -5.90625 4.671875 -14.25q0.765625 -2.875 2.34375 -4.125q1.59375 -1.25 4.75 -1.25q2.109375 0 3.015625 1.109375q0.921875 1.09375 0.921875 3.3125q0 2.390625 -0.390625 5.328125q-0.375 2.921875 -0.859375 6.0q-0.953125 6.140625 -1.53125 11.1875q-0.578125 5.03125 -0.578125 11.453125q0 3.65625 -1.484375 5.25q-1.484375 1.578125 -4.84375 1.578125q-3.5625 0 -4.953125 -1.875q-1.390625 -1.875 -1.390625 -7.25q0 -1.0625 0.1875 -4.703125q-1.625 6.71875 -4.84375 10.28125q-3.21875 3.546875 -6.859375 3.546875z" fill-rule="nonzero"/><path fill="#a64d79" d="m733.9652 550.8619c3.6203003 -22.5 220.34338 -197.32547 124.136475 -276.2047c-96.20691 -78.87927 -693.10236 -193.9672 -701.3779 -197.07088c-8.275589 -3.1036758 538.44836 123.10367 651.7244 178.4488c113.276 55.345154 40.34558 104.48425 27.931763 153.62207c-12.413818 49.137787 -106.035034 163.70471 -102.414734 141.20471z" fill-rule="evenodd"/><path stroke="#000000" stroke-width="1.0" stroke-linejoin="round" stroke-linecap="butt" d="m733.9652 550.8619c3.6203003 -22.5 220.34338 -197.32547 124.136475 -276.2047c-96.20691 -78.87927 -693.10236 -193.9672 -701.3779 -197.07088c-8.275589 -3.1036758 538.44836 123.10367 651.7244 178.4488c113.276 55.345154 40.34558 104.48425 27.931763 153.62207c-12.413818 49.137787 -106.035034 163.70471 -102.414734 141.20471z" fill-rule="evenodd"/><path fill="#000000" fill-opacity="0.0" d="m46.55118 71.38058l74.48819 0" fill-rule="evenodd"/><path stroke="#000000" stroke-width="8.0" stroke-linejoin="round" stroke-linecap="butt" d="m46.55118 71.38058l74.48819 0" fill-rule="evenodd"/><path fill="#000000" fill-opacity="0.0" d="m46.55118 93.58793l74.48819 0" fill-rule="evenodd"/><path stroke="#000000" stroke-width="8.0" stroke-linejoin="round" stroke-linecap="butt" d="m46.55118 93.58793l74.48819 0" fill-rule="evenodd"/><path fill="#000000" fill-opacity="0.0" d="m46.55118 49.070866l74.48819 0" fill-rule="evenodd"/><path stroke="#000000" stroke-width="8.0" stroke-linejoin="round" stroke-linecap="butt" d="m46.55118 49.070866l74.48819 0" fill-rule="evenodd"/></g></svg>